# MagicaVoxel @ Ephtracy

# group
o 

# material
mtllib package-5.mtl
usemtl palette

# normals
vn -1 0 0
vn 1 0 0
vn 0 0 1
vn 0 0 -1
vn 0 -1 0
vn 0 1 0

# texcoords
vt 0.173828 0.5
vt 0.212891 0.5
vt 0.224609 0.5
vt 0.263672 0.5
vt 0.271484 0.5
vt 0.283203 0.5
vt 0.287109 0.5
vt 0.306641 0.5
vt 0.314453 0.5
vt 0.412109 0.5
vt 0.416016 0.5
vt 0.423828 0.5
vt 0.443359 0.5
vt 0.447266 0.5
vt 0.544922 0.5
vt 0.681641 0.5
vt 0.912109 0.5

# verts
v 2.7 0 0.8
v 2.7 0 0.1
v 2.7 0 -0.1
v 2.7 0 -0.8
v 2.7 0.8 0.8
v 2.7 0.8 0.1
v 2.7 0.8 -0.1
v 2.7 0.8 -0.8
v 5.2 0 0.8
v 5.2 0 0.1
v 5.2 0 -0.1
v 5.2 0 -0.8
v 5.2 0.8 0.8
v 5.2 0.8 0.1
v 5.2 0.8 -0.1
v 5.2 0.8 -0.8
v 2.7 0 0.8
v 2.7 0.8 0.8
v 2.9 0.1 0.8
v 2.9 0.5 0.8
v 3 0.3 0.8
v 3 0.4 0.8
v 3.1 0 0.8
v 3.1 0.1 0.8
v 3.1 0.5 0.8
v 3.1 0.8 0.8
v 3.3 0 0.8
v 3.3 0.1 0.8
v 3.3 0.5 0.8
v 3.3 0.8 0.8
v 3.5 0.3 0.8
v 3.5 0.4 0.8
v 3.7 0.2 0.8
v 3.7 0.3 0.8
v 3.8 0.2 0.8
v 3.8 0.3 0.8
v 3.9 0.1 0.8
v 3.9 0.5 0.8
v 4.1 0.1 0.8
v 4.1 0.5 0.8
v 4.2 0.1 0.8
v 4.2 0.5 0.8
v 4.3 0.3 0.8
v 4.3 0.4 0.8
v 4.5 0.2 0.8
v 4.5 0.3 0.8
v 4.6 0 0.8
v 4.6 0.1 0.8
v 4.6 0.5 0.8
v 4.6 0.8 0.8
v 4.8 0 0.8
v 4.8 0.1 0.8
v 4.8 0.5 0.8
v 4.8 0.8 0.8
v 4.9 0.1 0.8
v 4.9 0.2 0.8
v 4.9 0.4 0.8
v 4.9 0.5 0.8
v 5 0.1 0.8
v 5 0.5 0.8
v 5.2 0 0.8
v 5.2 0.8 0.8
v 2.7 0 -0.8
v 2.7 0.8 -0.8
v 3.1 0 -0.8
v 3.1 0.8 -0.8
v 3.3 0 -0.8
v 3.3 0.8 -0.8
v 4.6 0 -0.8
v 4.6 0.8 -0.8
v 4.8 0 -0.8
v 4.8 0.8 -0.8
v 5.2 0 -0.8
v 5.2 0.8 -0.8
v 2.7 0 0.8
v 3.1 0 0.8
v 3.3 0 0.8
v 4.6 0 0.8
v 4.8 0 0.8
v 5.2 0 0.8
v 2.7 0 0.1
v 3.1 0 0.1
v 3.3 0 0.1
v 4.6 0 0.1
v 4.8 0 0.1
v 5.2 0 0.1
v 2.7 0 -0.1
v 3.1 0 -0.1
v 3.3 0 -0.1
v 4.6 0 -0.1
v 4.8 0 -0.1
v 5.2 0 -0.1
v 2.7 0 -0.8
v 3.1 0 -0.8
v 3.3 0 -0.8
v 4.6 0 -0.8
v 4.8 0 -0.8
v 5.2 0 -0.8
v 2.7 0.8 0.8
v 3.1 0.8 0.8
v 3.3 0.8 0.8
v 4.6 0.8 0.8
v 4.8 0.8 0.8
v 5.2 0.8 0.8
v 2.7 0.8 0.1
v 3.1 0.8 0.1
v 3.3 0.8 0.1
v 3.4 0.8 0.1
v 4.5 0.8 0.1
v 4.6 0.8 0.1
v 4.8 0.8 0.1
v 5.2 0.8 0.1
v 3.5 0.8 0
v 3.6 0.8 0
v 3.8 0.8 0
v 3.9 0.8 0
v 4 0.8 0
v 4.1 0.8 0
v 4.2 0.8 0
v 4.3 0.8 0
v 4.4 0.8 0
v 4.5 0.8 0
v 2.7 0.8 -0.1
v 3.1 0.8 -0.1
v 3.3 0.8 -0.1
v 3.4 0.8 -0.1
v 3.9 0.8 -0.1
v 4 0.8 -0.1
v 4.8 0.8 -0.1
v 5.2 0.8 -0.1
v 3.8 0.8 -0.2
v 3.9 0.8 -0.2
v 4 0.8 -0.2
v 4.3 0.8 -0.2
v 4.4 0.8 -0.2
v 4.5 0.8 -0.2
v 3.8 0.8 -0.3
v 4 0.8 -0.3
v 4.3 0.8 -0.3
v 4.4 0.8 -0.3
v 3.4 0.8 -0.5
v 3.5 0.8 -0.5
v 3.6 0.8 -0.5
v 3.8 0.8 -0.5
v 4 0.8 -0.5
v 4.1 0.8 -0.5
v 4.2 0.8 -0.5
v 4.3 0.8 -0.5
v 4.4 0.8 -0.5
v 4.5 0.8 -0.5
v 4.6 0.8 -0.5
v 2.7 0.8 -0.8
v 3.1 0.8 -0.8
v 3.3 0.8 -0.8
v 4.6 0.8 -0.8
v 4.8 0.8 -0.8
v 5.2 0.8 -0.8

# faces
f 5/8/1 2/8/1 1/8/1
f 6/5/1 3/5/1 2/5/1
f 6/8/1 2/8/1 5/8/1
f 7/8/1 4/8/1 3/8/1
f 7/5/1 3/5/1 6/5/1
f 8/8/1 4/8/1 7/8/1
f 9/8/2 10/8/2 13/8/2
f 10/5/2 11/5/2 14/5/2
f 13/8/2 10/8/2 14/8/2
f 11/8/2 12/8/2 15/8/2
f 14/5/2 11/5/2 15/5/2
f 15/8/2 12/8/2 16/8/2
f 19/8/3 18/8/3 17/8/3
f 20/8/3 18/8/3 19/8/3
f 21/4/3 20/4/3 19/4/3
f 22/4/3 20/4/3 21/4/3
f 23/8/3 19/8/3 17/8/3
f 24/4/3 21/4/3 19/4/3
f 24/8/3 19/8/3 23/8/3
f 25/4/3 20/4/3 22/4/3
f 25/8/3 18/8/3 20/8/3
f 26/8/3 18/8/3 25/8/3
f 27/5/3 24/5/3 23/5/3
f 28/4/3 21/4/3 24/4/3
f 28/5/3 24/5/3 27/5/3
f 29/4/3 25/4/3 22/4/3
f 29/5/3 26/5/3 25/5/3
f 30/5/3 26/5/3 29/5/3
f 31/3/3 22/3/3 21/3/3
f 31/4/3 21/4/3 28/4/3
f 32/4/3 29/4/3 22/4/3
f 32/3/3 22/3/3 31/3/3
f 33/4/3 31/4/3 28/4/3
f 33/4/3 32/4/3 31/4/3
f 34/4/3 32/4/3 33/4/3
f 35/4/3 33/4/3 28/4/3
f 35/1/3 34/1/3 33/1/3
f 36/4/3 32/4/3 34/4/3
f 36/1/3 34/1/3 35/1/3
f 37/8/3 28/8/3 27/8/3
f 37/4/3 35/4/3 28/4/3
f 37/4/3 36/4/3 35/4/3
f 38/8/3 30/8/3 29/8/3
f 38/4/3 36/4/3 37/4/3
f 38/4/3 32/4/3 36/4/3
f 38/4/3 29/4/3 32/4/3
f 39/8/3 37/8/3 27/8/3
f 39/8/3 38/8/3 37/8/3
f 40/8/3 30/8/3 38/8/3
f 40/8/3 38/8/3 39/8/3
f 41/8/3 39/8/3 27/8/3
f 41/13/3 40/13/3 39/13/3
f 42/8/3 30/8/3 40/8/3
f 42/13/3 40/13/3 41/13/3
f 43/10/3 42/10/3 41/10/3
f 44/10/3 42/10/3 43/10/3
f 45/10/3 43/10/3 41/10/3
f 46/14/3 44/14/3 43/14/3
f 46/10/3 43/10/3 45/10/3
f 47/8/3 41/8/3 27/8/3
f 48/10/3 45/10/3 41/10/3
f 48/8/3 41/8/3 47/8/3
f 49/8/3 30/8/3 42/8/3
f 49/10/3 42/10/3 44/10/3
f 50/8/3 30/8/3 49/8/3
f 51/5/3 48/5/3 47/5/3
f 52/10/3 45/10/3 48/10/3
f 52/5/3 48/5/3 51/5/3
f 53/10/3 49/10/3 44/10/3
f 53/5/3 50/5/3 49/5/3
f 54/5/3 50/5/3 53/5/3
f 55/10/3 45/10/3 52/10/3
f 55/8/3 52/8/3 51/8/3
f 56/14/3 46/14/3 45/14/3
f 56/10/3 45/10/3 55/10/3
f 57/14/3 44/14/3 46/14/3
f 57/14/3 46/14/3 56/14/3
f 57/10/3 53/10/3 44/10/3
f 58/8/3 54/8/3 53/8/3
f 58/10/3 53/10/3 57/10/3
f 59/13/3 56/13/3 55/13/3
f 59/8/3 55/8/3 51/8/3
f 59/13/3 58/13/3 57/13/3
f 59/13/3 57/13/3 56/13/3
f 60/8/3 54/8/3 58/8/3
f 60/13/3 58/13/3 59/13/3
f 61/8/3 59/8/3 51/8/3
f 61/8/3 60/8/3 59/8/3
f 62/8/3 54/8/3 60/8/3
f 62/8/3 60/8/3 61/8/3
f 63/8/4 64/8/4 65/8/4
f 65/8/4 64/8/4 66/8/4
f 65/5/4 66/5/4 67/5/4
f 67/5/4 66/5/4 68/5/4
f 67/8/4 68/8/4 69/8/4
f 69/8/4 68/8/4 70/8/4
f 69/5/4 70/5/4 71/5/4
f 71/5/4 70/5/4 72/5/4
f 71/8/4 72/8/4 73/8/4
f 73/8/4 72/8/4 74/8/4
f 81/8/5 76/8/5 75/8/5
f 82/5/5 77/5/5 76/5/5
f 82/8/5 76/8/5 81/8/5
f 83/8/5 78/8/5 77/8/5
f 83/5/5 77/5/5 82/5/5
f 84/5/5 79/5/5 78/5/5
f 84/8/5 78/8/5 83/8/5
f 85/8/5 80/8/5 79/8/5
f 85/5/5 79/5/5 84/5/5
f 86/8/5 80/8/5 85/8/5
f 87/5/5 84/5/5 83/5/5
f 87/5/5 82/5/5 81/5/5
f 87/5/5 86/5/5 85/5/5
f 87/5/5 85/5/5 84/5/5
f 87/5/5 83/5/5 82/5/5
f 88/5/5 86/5/5 87/5/5
f 89/5/5 86/5/5 88/5/5
f 90/5/5 86/5/5 89/5/5
f 91/5/5 86/5/5 90/5/5
f 92/5/5 86/5/5 91/5/5
f 93/8/5 88/8/5 87/8/5
f 94/5/5 89/5/5 88/5/5
f 94/8/5 88/8/5 93/8/5
f 95/8/5 90/8/5 89/8/5
f 95/5/5 89/5/5 94/5/5
f 96/5/5 91/5/5 90/5/5
f 96/8/5 90/8/5 95/8/5
f 97/8/5 92/8/5 91/8/5
f 97/5/5 91/5/5 96/5/5
f 98/8/5 92/8/5 97/8/5
f 99/8/6 100/8/6 105/8/6
f 100/5/6 101/5/6 106/5/6
f 105/8/6 100/8/6 106/8/6
f 101/8/6 102/8/6 107/8/6
f 106/5/6 101/5/6 107/5/6
f 107/8/6 102/8/6 108/8/6
f 108/8/6 102/8/6 109/8/6
f 102/5/6 103/5/6 110/5/6
f 109/8/6 102/8/6 110/8/6
f 103/8/6 104/8/6 111/8/6
f 110/5/6 103/5/6 111/5/6
f 111/8/6 104/8/6 112/8/6
f 108/11/6 109/11/6 113/11/6
f 113/11/6 109/11/6 114/11/6
f 114/11/6 109/11/6 115/11/6
f 115/11/6 109/11/6 116/11/6
f 116/11/6 109/11/6 117/11/6
f 117/11/6 109/11/6 118/11/6
f 118/11/6 109/11/6 119/11/6
f 119/11/6 109/11/6 120/11/6
f 120/11/6 109/11/6 121/11/6
f 109/10/6 110/10/6 122/10/6
f 121/11/6 109/11/6 122/11/6
f 105/5/6 106/5/6 123/5/6
f 106/5/6 107/5/6 123/5/6
f 107/5/6 108/5/6 123/5/6
f 123/5/6 108/5/6 124/5/6
f 124/5/6 108/5/6 125/5/6
f 108/11/6 113/11/6 126/11/6
f 125/5/6 108/5/6 126/5/6
f 115/16/6 116/16/6 127/16/6
f 116/17/6 117/17/6 127/17/6
f 117/11/6 118/11/6 128/11/6
f 127/17/6 117/17/6 128/17/6
f 110/5/6 111/5/6 129/5/6
f 111/5/6 112/5/6 129/5/6
f 129/5/6 112/5/6 130/5/6
f 114/11/6 115/11/6 131/11/6
f 115/16/6 127/16/6 131/16/6
f 127/12/6 128/12/6 132/12/6
f 131/16/6 127/16/6 132/16/6
f 128/11/6 118/11/6 133/11/6
f 132/12/6 128/12/6 133/12/6
f 120/12/6 121/12/6 134/12/6
f 119/11/6 120/11/6 134/11/6
f 121/2/6 122/2/6 135/2/6
f 134/12/6 121/12/6 135/12/6
f 122/10/6 110/10/6 136/10/6
f 135/2/6 122/2/6 136/2/6
f 132/11/6 133/11/6 137/11/6
f 131/11/6 132/11/6 137/11/6
f 114/11/6 131/11/6 137/11/6
f 133/11/6 118/11/6 138/11/6
f 137/11/6 133/11/6 138/11/6
f 134/11/6 135/11/6 139/11/6
f 119/11/6 134/11/6 139/11/6
f 135/11/6 136/11/6 139/11/6
f 139/11/6 136/11/6 140/11/6
f 126/11/6 113/11/6 141/11/6
f 125/8/6 126/8/6 141/8/6
f 113/9/6 114/9/6 142/9/6
f 141/11/6 113/11/6 142/11/6
f 114/11/6 137/11/6 143/11/6
f 142/9/6 114/9/6 143/9/6
f 137/15/6 138/15/6 144/15/6
f 143/11/6 137/11/6 144/11/6
f 138/11/6 118/11/6 145/11/6
f 144/15/6 138/15/6 145/15/6
f 118/7/6 119/7/6 146/7/6
f 145/11/6 118/11/6 146/11/6
f 119/11/6 139/11/6 147/11/6
f 146/7/6 119/7/6 147/7/6
f 139/6/6 140/6/6 148/6/6
f 147/11/6 139/11/6 148/11/6
f 140/11/6 136/11/6 149/11/6
f 148/6/6 140/6/6 149/6/6
f 136/10/6 110/10/6 150/10/6
f 149/11/6 136/11/6 150/11/6
f 110/5/6 129/5/6 151/5/6
f 150/10/6 110/10/6 151/10/6
f 123/8/6 124/8/6 152/8/6
f 124/5/6 125/5/6 153/5/6
f 152/8/6 124/8/6 153/8/6
f 141/8/6 142/8/6 154/8/6
f 153/5/6 125/5/6 154/5/6
f 143/8/6 144/8/6 154/8/6
f 150/8/6 151/8/6 154/8/6
f 145/8/6 146/8/6 154/8/6
f 142/8/6 143/8/6 154/8/6
f 144/8/6 145/8/6 154/8/6
f 148/8/6 149/8/6 154/8/6
f 146/8/6 147/8/6 154/8/6
f 147/8/6 148/8/6 154/8/6
f 149/8/6 150/8/6 154/8/6
f 125/8/6 141/8/6 154/8/6
f 151/5/6 129/5/6 155/5/6
f 154/8/6 151/8/6 155/8/6
f 129/8/6 130/8/6 156/8/6
f 155/5/6 129/5/6 156/5/6
f 156/8/6 130/8/6 157/8/6
