# MagicaVoxel @ Ephtracy

# group
o 

# material
mtllib package-3.mtl
usemtl palette

# normals
vn 0 0 1
vn 0 0 -1
vn 1 0 0
vn -1 0 0
vn 0 -1 0
vn 0 1 0

# texcoords
vt 0.412109 0.5
vt 0.416016 0.5
vt 0.443359 0.5
vt 0.447266 0.5
vt 0.919922 0.5

# verts
v 9.7 0 3.2
v 9.6 0 3.2
v 9.5 0 3.2
v 8.8 0 3.2
v 8.7 0 3.2
v 8.6 0 3.2
v 9.8 0.1 3.2
v 9.7 0.1 3.2
v 8.6 0.1 3.2
v 8.5 0.1 3.2
v 9.8 0.2 3.2
v 9.7 0.2 3.2
v 8.6 0.2 3.2
v 8.5 0.2 3.2
v 9.7 0.3 3.2
v 9.6 0.3 3.2
v 9.5 0.3 3.2
v 8.8 0.3 3.2
v 8.7 0.3 3.2
v 8.6 0.3 3.2
v 9.7 0 2.4
v 9.6 0 2.4
v 9.5 0 2.4
v 8.8 0 2.4
v 8.7 0 2.4
v 8.6 0 2.4
v 9.8 0.1 2.4
v 9.7 0.1 2.4
v 8.6 0.1 2.4
v 8.5 0.1 2.4
v 9.8 0.2 2.4
v 9.7 0.2 2.4
v 8.6 0.2 2.4
v 8.5 0.2 2.4
v 9.7 0.3 2.4
v 9.6 0.3 2.4
v 9.5 0.3 2.4
v 8.8 0.3 2.4
v 8.7 0.3 2.4
v 8.6 0.3 2.4
v 9.8 0.1 3.2
v 9.8 0.2 3.2
v 9.8 0.1 2.4
v 9.8 0.2 2.4
v 9.7 0 3.2
v 9.7 0.1 3.2
v 9.7 0.2 3.2
v 9.7 0.3 3.2
v 9.7 0 2.4
v 9.7 0.1 2.4
v 9.7 0.2 2.4
v 9.7 0.3 2.4
v 8.6 0 3.2
v 8.6 0.1 3.2
v 8.6 0.2 3.2
v 8.6 0.3 3.2
v 8.6 0 2.4
v 8.6 0.1 2.4
v 8.6 0.2 2.4
v 8.6 0.3 2.4
v 8.5 0.1 3.2
v 8.5 0.2 3.2
v 8.5 0.1 2.4
v 8.5 0.2 2.4
v 9.7 0 3.2
v 9.7 0 2.4
v 9.6 0 3.2
v 9.6 0 2.4
v 9.5 0 3.2
v 9.5 0 2.4
v 8.8 0 3.2
v 8.8 0 2.4
v 8.7 0 3.2
v 8.7 0 2.4
v 8.6 0 3.2
v 8.6 0 2.4
v 9.8 0.1 3.2
v 9.8 0.1 2.4
v 9.7 0.1 3.2
v 9.7 0.1 2.4
v 8.6 0.1 3.2
v 8.6 0.1 2.4
v 8.5 0.1 3.2
v 8.5 0.1 2.4
v 9.8 0.2 3.2
v 9.8 0.2 2.4
v 9.7 0.2 3.2
v 9.7 0.2 2.4
v 8.6 0.2 3.2
v 8.6 0.2 2.4
v 8.5 0.2 3.2
v 8.5 0.2 2.4
v 9.7 0.3 3.2
v 9.7 0.3 2.4
v 9.6 0.3 3.2
v 9.6 0.3 2.4
v 9.5 0.3 3.2
v 9.5 0.3 2.4
v 9.4 0.3 3.1
v 9.4 0.3 2.6
v 9.3 0.3 3.1
v 9.3 0.3 2.6
v 9.2 0.3 3
v 9.2 0.3 2.8
v 9.1 0.3 2.8
v 9.1 0.3 2.7
v 9 0.3 3
v 9 0.3 2.7
v 8.9 0.3 3.1
v 8.9 0.3 2.6
v 8.8 0.3 3.2
v 8.8 0.3 3.1
v 8.8 0.3 2.6
v 8.8 0.3 2.4
v 8.7 0.3 3.2
v 8.7 0.3 2.4
v 8.6 0.3 3.2
v 8.6 0.3 2.4

# faces
f 8/5/1 2/5/1 1/5/1
f 9/5/1 6/5/1 5/5/1
f 11/5/1 8/5/1 7/5/1
f 12/5/1 2/5/1 8/5/1
f 12/5/1 8/5/1 11/5/1
f 13/5/1 10/5/1 9/5/1
f 13/5/1 9/5/1 5/5/1
f 14/5/1 10/5/1 13/5/1
f 15/5/1 2/5/1 12/5/1
f 16/2/1 3/2/1 2/2/1
f 16/5/1 2/5/1 15/5/1
f 17/5/1 4/5/1 3/5/1
f 17/2/1 3/2/1 16/2/1
f 18/2/1 5/2/1 4/2/1
f 18/5/1 4/5/1 17/5/1
f 19/5/1 13/5/1 5/5/1
f 19/2/1 5/2/1 18/2/1
f 20/5/1 13/5/1 19/5/1
f 21/5/2 22/5/2 28/5/2
f 25/5/2 26/5/2 29/5/2
f 27/5/2 28/5/2 31/5/2
f 28/5/2 22/5/2 32/5/2
f 31/5/2 28/5/2 32/5/2
f 29/5/2 30/5/2 33/5/2
f 25/5/2 29/5/2 33/5/2
f 33/5/2 30/5/2 34/5/2
f 32/5/2 22/5/2 35/5/2
f 22/2/2 23/2/2 36/2/2
f 35/5/2 22/5/2 36/5/2
f 23/5/2 24/5/2 37/5/2
f 36/2/2 23/2/2 37/2/2
f 24/2/2 25/2/2 38/2/2
f 37/5/2 24/5/2 38/5/2
f 25/5/2 33/5/2 39/5/2
f 38/2/2 25/2/2 39/2/2
f 39/5/2 33/5/2 40/5/2
f 43/5/3 42/5/3 41/5/3
f 44/5/3 42/5/3 43/5/3
f 49/5/3 46/5/3 45/5/3
f 50/5/3 46/5/3 49/5/3
f 51/5/3 48/5/3 47/5/3
f 52/5/3 48/5/3 51/5/3
f 53/5/4 54/5/4 57/5/4
f 57/5/4 54/5/4 58/5/4
f 55/5/4 56/5/4 59/5/4
f 59/5/4 56/5/4 60/5/4
f 61/5/4 62/5/4 63/5/4
f 63/5/4 62/5/4 64/5/4
f 67/5/5 66/5/5 65/5/5
f 68/5/5 66/5/5 67/5/5
f 69/2/5 68/2/5 67/2/5
f 70/2/5 68/2/5 69/2/5
f 71/5/5 70/5/5 69/5/5
f 72/5/5 70/5/5 71/5/5
f 73/2/5 72/2/5 71/2/5
f 74/2/5 72/2/5 73/2/5
f 75/5/5 74/5/5 73/5/5
f 76/5/5 74/5/5 75/5/5
f 79/5/5 78/5/5 77/5/5
f 80/5/5 78/5/5 79/5/5
f 83/5/5 82/5/5 81/5/5
f 84/5/5 82/5/5 83/5/5
f 85/5/6 86/5/6 87/5/6
f 87/5/6 86/5/6 88/5/6
f 89/5/6 90/5/6 91/5/6
f 91/5/6 90/5/6 92/5/6
f 93/5/6 94/5/6 95/5/6
f 95/5/6 94/5/6 96/5/6
f 95/2/6 96/2/6 97/2/6
f 97/2/6 96/2/6 98/2/6
f 97/5/6 98/5/6 99/5/6
f 99/5/6 98/5/6 100/5/6
f 97/5/6 99/5/6 101/5/6
f 99/3/6 100/3/6 101/3/6
f 100/5/6 98/5/6 102/5/6
f 101/3/6 100/3/6 102/3/6
f 101/1/6 102/1/6 103/1/6
f 103/1/6 102/1/6 104/1/6
f 103/4/6 104/4/6 105/4/6
f 104/1/6 102/1/6 105/1/6
f 105/1/6 102/1/6 106/1/6
f 101/1/6 103/1/6 107/1/6
f 103/4/6 105/4/6 107/4/6
f 105/4/6 106/4/6 107/4/6
f 106/1/6 102/1/6 108/1/6
f 107/4/6 106/4/6 108/4/6
f 97/5/6 101/5/6 109/5/6
f 101/1/6 107/1/6 109/1/6
f 107/1/6 108/1/6 109/1/6
f 108/1/6 102/1/6 110/1/6
f 109/1/6 108/1/6 110/1/6
f 102/5/6 98/5/6 110/5/6
f 97/5/6 109/5/6 111/5/6
f 109/3/6 110/3/6 112/3/6
f 111/5/6 109/5/6 112/5/6
f 110/5/6 98/5/6 113/5/6
f 112/3/6 110/3/6 113/3/6
f 113/5/6 98/5/6 114/5/6
f 111/2/6 112/2/6 115/2/6
f 112/2/6 113/2/6 115/2/6
f 113/2/6 114/2/6 115/2/6
f 115/2/6 114/2/6 116/2/6
f 115/5/6 116/5/6 117/5/6
f 117/5/6 116/5/6 118/5/6
