# MagicaVoxel @ Ephtracy

# group
o 

# material
mtllib package-7.mtl
usemtl palette

# normals
vn 0 1 0
vn 0 -1 0
vn 0 0 -1
vn 0 0 1
vn 1 0 0
vn -1 0 0

# texcoords
vt 0.173828 0.5
vt 0.212891 0.5
vt 0.224609 0.5
vt 0.263672 0.5
vt 0.271484 0.5
vt 0.283203 0.5
vt 0.287109 0.5
vt 0.306641 0.5
vt 0.314453 0.5
vt 0.412109 0.5
vt 0.416016 0.5
vt 0.423828 0.5
vt 0.443359 0.5
vt 0.447266 0.5
vt 0.544922 0.5
vt 0.681641 0.5
vt 0.912109 0.5
vt 0.958984 0.5
vt 0.966797 0.5

# verts
v -6 4.2 -1
v -6 4.2 -0.1
v -6 4.2 0.2
v -6 4.2 1.1
v -6.3 4.2 0
v -6.3 4.2 0.2
v -6.3 4.2 0.8
v -6.4 4.2 0
v -6.4 4.2 0.8
v -6.5 4.2 0.1
v -6.5 4.2 0.7
v -6.6 4.2 0.1
v -6.6 4.2 0.7
v -6.7 4.2 0.1
v -6.7 4.2 0.5
v -6.8 4.2 0.1
v -6.8 4.2 0.5
v -6.9 4.2 0.1
v -6.9 4.2 0.4
v -6.9 4.2 0.5
v -6.9 4.2 0.7
v -7 4.2 0.1
v -7 4.2 0.2
v -7 4.2 0.3
v -7 4.2 0.4
v -7.1 4.2 0.1
v -7.1 4.2 0.2
v -7.1 4.2 0.3
v -7.1 4.2 0.4
v -7.1 4.2 0.5
v -7.1 4.2 0.7
v -7.2 4.2 0.1
v -7.2 4.2 0.4
v -7.3 4.2 0.1
v -7.3 4.2 0.7
v -7.4 4.2 0.1
v -7.4 4.2 0.7
v -7.5 4.2 0.1
v -7.5 4.2 0.4
v -7.5 4.2 0.5
v -7.5 4.2 0.7
v -7.6 4.2 0.1
v -7.6 4.2 0.4
v -7.7 4.2 0.1
v -7.7 4.2 0.4
v -7.7 4.2 0.5
v -7.7 4.2 0.7
v -7.8 4.2 0
v -7.8 4.2 0.1
v -7.8 4.2 0.4
v -7.8 4.2 0.8
v -7.9 4.2 0
v -7.9 4.2 0.2
v -7.9 4.2 0.8
v -8.1 4.2 -1
v -8.1 4.2 -0.1
v -8.1 4.2 0.2
v -8.1 4.2 1.1
v -6 0 -1
v -6 0 1.1
v -8.1 0 -1
v -8.1 0 1.1
v -6 4.2 -1
v -8.1 4.2 -1
v -6.1 3.4 -1
v -7.4 3.4 -1
v -6.2 3.3 -1
v -6.9 3.3 -1
v -6.2 3.2 -1
v -6.9 3.2 -1
v -6.2 3.1 -1
v -6.7 3.1 -1
v -7.1 3.1 -1
v -7.3 3.1 -1
v -6.2 3 -1
v -6.7 3 -1
v -7.1 2.9 -1
v -7.3 2.9 -1
v -6.1 2.8 -1
v -7.4 2.8 -1
v -6 0 -1
v -8.1 0 -1
v -6 4.2 1.1
v -8.1 4.2 1.1
v -7.3 3.9 1.1
v -8 3.9 1.1
v -7.4 3.8 1.1
v -7.9 3.8 1.1
v -7.5 3.7 1.1
v -7.8 3.7 1.1
v -7.5 3.6 1.1
v -7.8 3.6 1.1
v -7.5 3.5 1.1
v -7.8 3.5 1.1
v -7.5 3.4 1.1
v -7.8 3.4 1.1
v -7.5 3.3 1.1
v -7.8 3.3 1.1
v -7.5 2.9 1.1
v -7.8 2.9 1.1
v -7.4 2.8 1.1
v -7.9 2.8 1.1
v -7.3 2.7 1.1
v -8 2.7 1.1
v -6.5 1.2 1.1
v -6.7 1.2 1.1
v -6.4 1.1 1.1
v -6.5 1.1 1.1
v -6.7 1.1 1.1
v -6.8 1.1 1.1
v -6.3 1 1.1
v -6.4 1 1.1
v -6.8 1 1.1
v -6.9 1 1.1
v -6.2 0.9 1.1
v -6.3 0.9 1.1
v -6.9 0.9 1.1
v -7 0.9 1.1
v -6.2 0.8 1.1
v -6.4 0.8 1.1
v -6.8 0.8 1.1
v -7 0.8 1.1
v -6.4 0.2 1.1
v -6.8 0.2 1.1
v -6 0 1.1
v -8.1 0 1.1
v -6 4.2 -1
v -6 0 -1
v -6 2.3 -0.6
v -6 1.8 -0.6
v -6 2.2 -0.5
v -6 2.1 -0.5
v -6 2 -0.5
v -6 1.9 -0.5
v -6 4.2 -0.1
v -6 3.6 -0.1
v -6 2 0.1
v -6 1.9 0.1
v -6 4.2 0.2
v -6 3.6 0.2
v -6 2.2 0.3
v -6 2.1 0.3
v -6 2.2 0.4
v -6 1.9 0.4
v -6 2.2 0.6
v -6 1.9 0.6
v -6 2.3 0.7
v -6 1.8 0.7
v -6 4.2 1.1
v -6 0 1.1
v -8.1 4.2 -1
v -8.1 0 -1
v -8.1 4.2 -0.1
v -8.1 3.6 -0.1
v -8.1 4.2 0.2
v -8.1 3.6 0.2
v -8.1 4.2 1.1
v -8.1 0 1.1

# faces
f 5/5/1 3/5/1 2/5/1
f 6/8/1 4/8/1 3/8/1
f 6/5/1 3/5/1 5/5/1
f 7/8/1 4/8/1 6/8/1
f 8/5/1 5/5/1 2/5/1
f 8/10/1 6/10/1 5/10/1
f 8/10/1 7/10/1 6/10/1
f 9/8/1 4/8/1 7/8/1
f 9/10/1 7/10/1 8/10/1
f 10/11/1 9/11/1 8/11/1
f 11/11/1 9/11/1 10/11/1
f 12/11/1 10/11/1 8/11/1
f 12/9/1 11/9/1 10/9/1
f 13/11/1 9/11/1 11/11/1
f 13/9/1 11/9/1 12/9/1
f 14/11/1 12/11/1 8/11/1
f 14/11/1 13/11/1 12/11/1
f 15/11/1 13/11/1 14/11/1
f 16/11/1 14/11/1 8/11/1
f 16/9/1 15/9/1 14/9/1
f 17/11/1 13/11/1 15/11/1
f 17/9/1 15/9/1 16/9/1
f 18/11/1 16/11/1 8/11/1
f 18/11/1 17/11/1 16/11/1
f 19/11/1 17/11/1 18/11/1
f 20/11/1 13/11/1 17/11/1
f 20/11/1 17/11/1 19/11/1
f 21/11/1 9/11/1 13/11/1
f 21/11/1 13/11/1 20/11/1
f 22/16/1 19/16/1 18/16/1
f 22/11/1 18/11/1 8/11/1
f 23/16/1 19/16/1 22/16/1
f 24/16/1 19/16/1 23/16/1
f 25/11/1 20/11/1 19/11/1
f 25/16/1 19/16/1 24/16/1
f 26/11/1 22/11/1 8/11/1
f 26/17/1 23/17/1 22/17/1
f 27/12/1 24/12/1 23/12/1
f 27/17/1 23/17/1 26/17/1
f 28/17/1 25/17/1 24/17/1
f 28/12/1 24/12/1 27/12/1
f 29/11/1 20/11/1 25/11/1
f 29/17/1 25/17/1 28/17/1
f 30/15/1 21/15/1 20/15/1
f 30/11/1 20/11/1 29/11/1
f 31/11/1 9/11/1 21/11/1
f 31/15/1 21/15/1 30/15/1
f 32/11/1 26/11/1 8/11/1
f 32/16/1 29/16/1 28/16/1
f 32/16/1 28/16/1 27/16/1
f 32/16/1 27/16/1 26/16/1
f 33/11/1 30/11/1 29/11/1
f 33/16/1 29/16/1 32/16/1
f 33/11/1 31/11/1 30/11/1
f 34/11/1 32/11/1 8/11/1
f 34/11/1 33/11/1 32/11/1
f 35/11/1 9/11/1 31/11/1
f 35/11/1 33/11/1 34/11/1
f 35/11/1 31/11/1 33/11/1
f 36/11/1 34/11/1 8/11/1
f 36/7/1 35/7/1 34/7/1
f 37/11/1 9/11/1 35/11/1
f 37/7/1 35/7/1 36/7/1
f 38/11/1 36/11/1 8/11/1
f 38/11/1 37/11/1 36/11/1
f 39/11/1 37/11/1 38/11/1
f 40/11/1 37/11/1 39/11/1
f 41/11/1 9/11/1 37/11/1
f 41/11/1 37/11/1 40/11/1
f 42/11/1 38/11/1 8/11/1
f 42/2/1 39/2/1 38/2/1
f 43/11/1 40/11/1 39/11/1
f 43/2/1 39/2/1 42/2/1
f 44/11/1 42/11/1 8/11/1
f 44/12/1 43/12/1 42/12/1
f 45/11/1 40/11/1 43/11/1
f 45/12/1 43/12/1 44/12/1
f 46/6/1 41/6/1 40/6/1
f 46/11/1 40/11/1 45/11/1
f 47/11/1 9/11/1 41/11/1
f 47/6/1 41/6/1 46/6/1
f 48/5/1 8/5/1 2/5/1
f 48/11/1 44/11/1 8/11/1
f 49/2/1 45/2/1 44/2/1
f 49/11/1 44/11/1 48/11/1
f 50/11/1 47/11/1 46/11/1
f 50/2/1 45/2/1 49/2/1
f 50/11/1 46/11/1 45/11/1
f 51/11/1 9/11/1 47/11/1
f 51/11/1 47/11/1 50/11/1
f 51/8/1 4/8/1 9/8/1
f 52/10/1 50/10/1 49/10/1
f 52/5/1 48/5/1 2/5/1
f 52/10/1 51/10/1 50/10/1
f 52/10/1 49/10/1 48/10/1
f 53/10/1 51/10/1 52/10/1
f 54/8/1 4/8/1 51/8/1
f 54/10/1 51/10/1 53/10/1
f 55/8/1 2/8/1 1/8/1
f 56/5/1 53/5/1 52/5/1
f 56/8/1 2/8/1 55/8/1
f 56/5/1 52/5/1 2/5/1
f 57/8/1 54/8/1 53/8/1
f 57/5/1 53/5/1 56/5/1
f 58/8/1 4/8/1 54/8/1
f 58/8/1 54/8/1 57/8/1
f 59/8/2 60/8/2 61/8/2
f 61/8/2 60/8/2 62/8/2
f 65/8/3 64/8/3 63/8/3
f 66/8/3 64/8/3 65/8/3
f 67/4/3 66/4/3 65/4/3
f 68/4/3 66/4/3 67/4/3
f 69/4/3 67/4/3 65/4/3
f 69/3/3 68/3/3 67/3/3
f 70/4/3 66/4/3 68/4/3
f 70/3/3 68/3/3 69/3/3
f 71/4/3 69/4/3 65/4/3
f 71/4/3 70/4/3 69/4/3
f 72/4/3 70/4/3 71/4/3
f 73/4/3 66/4/3 70/4/3
f 73/4/3 70/4/3 72/4/3
f 74/4/3 66/4/3 73/4/3
f 75/3/3 72/3/3 71/3/3
f 75/4/3 71/4/3 65/4/3
f 76/4/3 73/4/3 72/4/3
f 76/3/3 72/3/3 75/3/3
f 77/1/3 74/1/3 73/1/3
f 77/4/3 73/4/3 76/4/3
f 77/4/3 76/4/3 75/4/3
f 78/4/3 66/4/3 74/4/3
f 78/1/3 74/1/3 77/1/3
f 79/8/3 65/8/3 63/8/3
f 79/4/3 77/4/3 75/4/3
f 79/4/3 78/4/3 77/4/3
f 79/4/3 75/4/3 65/4/3
f 80/4/3 66/4/3 78/4/3
f 80/4/3 78/4/3 79/4/3
f 80/8/3 64/8/3 66/8/3
f 81/8/3 79/8/3 63/8/3
f 81/8/3 80/8/3 79/8/3
f 82/8/3 64/8/3 80/8/3
f 82/8/3 80/8/3 81/8/3
f 83/8/4 84/8/4 85/8/4
f 85/8/4 84/8/4 86/8/4
f 85/19/4 86/19/4 87/19/4
f 87/19/4 86/19/4 88/19/4
f 87/18/4 88/18/4 89/18/4
f 89/18/4 88/18/4 90/18/4
f 87/18/4 89/18/4 91/18/4
f 89/19/4 90/19/4 91/19/4
f 90/18/4 88/18/4 92/18/4
f 91/19/4 90/19/4 92/19/4
f 87/18/4 91/18/4 93/18/4
f 91/18/4 92/18/4 93/18/4
f 92/18/4 88/18/4 94/18/4
f 93/18/4 92/18/4 94/18/4
f 87/18/4 93/18/4 95/18/4
f 93/19/4 94/19/4 95/19/4
f 94/18/4 88/18/4 96/18/4
f 95/19/4 94/19/4 96/19/4
f 87/18/4 95/18/4 97/18/4
f 95/18/4 96/18/4 97/18/4
f 96/18/4 88/18/4 98/18/4
f 97/18/4 96/18/4 98/18/4
f 87/18/4 97/18/4 99/18/4
f 97/19/4 98/19/4 99/19/4
f 98/18/4 88/18/4 100/18/4
f 99/19/4 98/19/4 100/19/4
f 85/19/4 87/19/4 101/19/4
f 87/18/4 99/18/4 101/18/4
f 99/18/4 100/18/4 101/18/4
f 100/18/4 88/18/4 102/18/4
f 101/18/4 100/18/4 102/18/4
f 88/19/4 86/19/4 102/19/4
f 83/8/4 85/8/4 103/8/4
f 85/19/4 101/19/4 103/19/4
f 101/19/4 102/19/4 103/19/4
f 102/19/4 86/19/4 104/19/4
f 103/19/4 102/19/4 104/19/4
f 86/8/4 84/8/4 104/8/4
f 83/8/4 103/8/4 105/8/4
f 103/8/4 104/8/4 105/8/4
f 105/8/4 104/8/4 106/8/4
f 83/8/4 105/8/4 107/8/4
f 105/5/4 106/5/4 108/5/4
f 107/8/4 105/8/4 108/8/4
f 106/8/4 104/8/4 109/8/4
f 108/5/4 106/5/4 109/5/4
f 109/8/4 104/8/4 110/8/4
f 83/8/4 107/8/4 111/8/4
f 107/5/4 108/5/4 112/5/4
f 111/8/4 107/8/4 112/8/4
f 108/5/4 109/5/4 112/5/4
f 109/5/4 110/5/4 112/5/4
f 110/8/4 104/8/4 113/8/4
f 112/5/4 110/5/4 113/5/4
f 113/8/4 104/8/4 114/8/4
f 83/8/4 111/8/4 115/8/4
f 111/5/4 112/5/4 116/5/4
f 115/8/4 111/8/4 116/8/4
f 112/5/4 113/5/4 116/5/4
f 113/5/4 114/5/4 116/5/4
f 114/8/4 104/8/4 117/8/4
f 116/5/4 114/5/4 117/5/4
f 117/8/4 104/8/4 118/8/4
f 115/5/4 116/5/4 119/5/4
f 83/8/4 115/8/4 119/8/4
f 117/5/4 118/5/4 119/5/4
f 116/5/4 117/5/4 119/5/4
f 119/5/4 118/5/4 120/5/4
f 120/5/4 118/5/4 121/5/4
f 118/8/4 104/8/4 122/8/4
f 121/5/4 118/5/4 122/5/4
f 120/5/4 121/5/4 123/5/4
f 119/8/4 120/8/4 123/8/4
f 121/8/4 122/8/4 124/8/4
f 123/5/4 121/5/4 124/5/4
f 83/8/4 119/8/4 125/8/4
f 119/8/4 123/8/4 125/8/4
f 123/8/4 124/8/4 125/8/4
f 104/8/4 84/8/4 126/8/4
f 125/8/4 124/8/4 126/8/4
f 122/8/4 104/8/4 126/8/4
f 124/8/4 122/8/4 126/8/4
f 129/8/5 128/8/5 127/8/5
f 130/8/5 128/8/5 129/8/5
f 131/13/5 130/13/5 129/13/5
f 132/13/5 130/13/5 131/13/5
f 133/13/5 130/13/5 132/13/5
f 134/13/5 130/13/5 133/13/5
f 135/8/5 129/8/5 127/8/5
f 136/8/5 129/8/5 135/8/5
f 137/13/5 133/13/5 132/13/5
f 137/14/5 134/14/5 133/14/5
f 138/13/5 130/13/5 134/13/5
f 138/14/5 134/14/5 137/14/5
f 139/5/5 136/5/5 135/5/5
f 140/8/5 129/8/5 136/8/5
f 140/5/5 136/5/5 139/5/5
f 141/13/5 131/13/5 129/13/5
f 141/14/5 132/14/5 131/14/5
f 142/13/5 137/13/5 132/13/5
f 142/14/5 132/14/5 141/14/5
f 142/13/5 138/13/5 137/13/5
f 143/13/5 141/13/5 129/13/5
f 143/13/5 142/13/5 141/13/5
f 144/13/5 138/13/5 142/13/5
f 144/13/5 142/13/5 143/13/5
f 144/13/5 130/13/5 138/13/5
f 145/13/5 143/13/5 129/13/5
f 145/10/5 144/10/5 143/10/5
f 146/13/5 130/13/5 144/13/5
f 146/10/5 144/10/5 145/10/5
f 147/13/5 145/13/5 129/13/5
f 147/8/5 129/8/5 140/8/5
f 147/13/5 146/13/5 145/13/5
f 147/8/5 140/8/5 139/8/5
f 148/13/5 130/13/5 146/13/5
f 148/13/5 146/13/5 147/13/5
f 148/8/5 128/8/5 130/8/5
f 149/8/5 147/8/5 139/8/5
f 149/8/5 148/8/5 147/8/5
f 150/8/5 128/8/5 148/8/5
f 150/8/5 148/8/5 149/8/5
f 151/8/6 152/8/6 153/8/6
f 153/8/6 152/8/6 154/8/6
f 153/5/6 154/5/6 155/5/6
f 154/8/6 152/8/6 156/8/6
f 155/5/6 154/5/6 156/5/6
f 155/8/6 156/8/6 157/8/6
f 156/8/6 152/8/6 158/8/6
f 157/8/6 156/8/6 158/8/6
